<?xml version="1.0" standalone="no"?>
<!DOCTYPE svg PUBLIC "-//W3C//DTD SVG 20010904//EN"
        "http://www.w3.org/TR/2001/REC-SVG-20010904/DTD/svg10.dtd">
<svg version="1.0" xmlns="http://www.w3.org/2000/svg"
     width="437.000000pt" height="439.000000pt" viewBox="0 0 437.000000 439.000000"
     preserveAspectRatio="xMidYMid meet">
    <metadata>
        Created by potrace 1.16, written by Peter Selinger 2001-2019
    </metadata>
    <g transform="translate(0.000000,439.000000) scale(0.100000,-0.100000)"
       fill="#000000" stroke="none">
        <path d="M2171 3865 l0 -525 40 0 39 0 0 525 0 525 -40 0 -40 0 1 -525z"/>
        <path d="M1474 4276 c-66 -29 -104 -112 -90 -191 8 -41 58 -103 99 -120 l28
-12 -1 -306 -1 -307 41 0 40 0 0 308 1 307 39 18 c82 38 118 163 68 237 -37
54 -71 73 -135 77 -35 2 -70 -2 -89 -11z"/>
        <path d="M2840 3720 l0 -380 35 0 35 0 0 380 0 380 -35 0 -35 0 0 -380z"/>
        <path d="M2470 3951 c-88 -47 -123 -147 -81 -229 20 -40 82 -92 108 -92 10 0
13 -35 13 -145 l0 -145 35 0 35 0 0 144 0 144 30 12 c42 17 87 72 100 120 36
133 -119 256 -240 191z"/>
        <path d="M1840 3635 l0 -295 40 0 40 0 0 295 0 295 -40 0 -40 0 0 -295z"/>
        <path d="M1299 3187 c-73 -48 -69 8 -69 -960 0 -962 -3 -917 64 -958 30 -18
68 -19 924 -19 l892 0 38 34 37 34 3 899 c2 887 2 898 -18 931 -40 65 -1 62
-963 62 l-874 0 -34 -23z m1769 -95 c10 -7 12 -187 10 -868 l-3 -859 -862 -3
-863 -2 0 863 c0 475 3 867 7 870 9 10 1695 8 1711 -1z"/>
        <path d="M1714 2770 c-55 -22 -54 -15 -54 -541 l0 -487 26 -31 26 -31 499 0
500 0 24 25 25 24 0 500 0 499 -31 26 -31 26 -481 -1 c-265 0 -492 -4 -503 -9z
m974 -542 l-3 -473 -472 -3 -473 -2 0 475 0 475 475 0 475 0 -2 -472z"/>
        <path d="M615 3042 c-101 -63 -124 -177 -53 -258 40 -45 77 -64 127 -64 73 0
136 40 161 101 l12 29 119 0 119 0 0 40 0 40 -118 0 -118 0 -17 34 c-26 55
-79 89 -145 93 -43 3 -64 0 -87 -15z"/>
        <path d="M3328 2918 c-2 -6 -2 -24 0 -40 l4 -28 249 0 249 0 0 40 0 40 -249 0
c-180 0 -250 -3 -253 -12z"/>
        <path d="M3939 2707 c-29 -15 -52 -38 -67 -65 l-23 -42 -260 0 -259 0 0 -40 0
-40 260 0 259 0 17 -35 c33 -70 99 -104 184 -92 157 21 190 247 47 316 -56 27
-103 27 -158 -2z"/>
        <path d="M250 2560 l0 -40 425 0 425 0 0 40 0 40 -425 0 -425 0 0 -40z"/>
        <path d="M440 2228 l0 -38 330 0 330 0 0 35 0 34 -330 3 -330 3 0 -37z"/>
        <path d="M3329 2253 c0 -5 -3 -20 -5 -35 l-5 -28 526 0 525 0 0 35 0 35 -520
0 c-286 0 -520 -3 -521 -7z"/>
        <path d="M105 2056 c-150 -67 -133 -283 25 -326 75 -20 170 28 200 100 l12 30
379 0 379 0 0 35 0 35 -379 0 -380 0 -7 22 c-28 90 -144 142 -229 104z"/>
        <path d="M3753 2049 c-39 -19 -93 -81 -93 -107 0 -9 -44 -12 -168 -12 l-168 0
4 -35 4 -35 163 0 163 0 12 -30 c30 -72 125 -120 199 -100 157 42 176 253 27
321 -53 24 -91 24 -143 -2z"/>
        <path d="M610 1565 l0 -35 245 0 245 0 0 35 0 35 -245 0 -245 0 0 -35z"/>
        <path d="M3324 1565 l0 -35 393 0 393 0 0 35 0 35 -393 0 -393 0 0 -35z"/>
        <path d="M1512 863 l3 -248 -36 -16 c-104 -47 -130 -183 -53 -269 60 -66 148
-77 219 -29 68 47 96 149 60 218 -16 33 -65 77 -95 86 -19 6 -20 15 -20 256
l0 249 -40 0 -40 0 2 -247z"/>
        <path d="M1840 555 l0 -555 40 0 40 0 0 555 0 555 -40 0 -40 0 0 -555z"/>
        <path d="M2171 959 l1 -152 -29 -12 c-95 -42 -131 -158 -74 -246 34 -54 80
-79 146 -79 178 0 234 239 74 320 l-39 20 0 150 0 150 -40 0 -41 0 2 -151z"/>
        <path d="M2510 675 l0 -435 35 0 35 0 0 435 0 435 -35 0 -35 0 0 -435z"/>
        <path d="M2840 835 l0 -275 35 0 35 0 0 275 0 275 -35 0 -35 0 0 -275z"/>
    </g>
</svg>
