<svg height="800pt" preserveAspectRatio="xMidYMid meet" viewBox="0 0 800 800" width="800pt" xmlns="http://www.w3.org/2000/svg"><g transform="matrix(.1 0 0 -.1 0 800)"><path d="m3971 6605v-525h40 39v525 525h-40-40z"/><path d="m3274 7016c-66-29-104-112-90-191 8-41 58-103 99-120l28-12-1-306-1-307h41 40v308l1 307 39 18c82 38 118 163 68 237-37 54-71 73-135 77-35 2-70-2-89-11z"/><path d="m736 6778c-3-57-8-245-11-418s-10-319-15-324-16-6-24-3c-14 5-16 31-17 164-1 87-5 273-8 413l-6 255-37 3c-36 3-37 3-42-40-22-157-40-501-43-804-5-412-14-373 123-521l86-94-1-97c-5-354-34-1323-62-2037-12-313-10-436 9-443 6-2 12-10 12-17s15-25 33-39c17-15 37-31 44-36 16-13 110-13 126 0 7 5 27 21 44 36 44 34 65 107 58 194-3 36-10 279-16 540-15 621-24 932-44 1458l-17 432 87 92c48 51 94 106 102 122 9 17 22 36 29 44 11 11 14 68 13 285 0 150-5 310-10 357s-15 157-23 245c-28 330-26 315-52 327-51 23-51 22-58-299-10-450-15-545-33-541-11 2-15 22-18 83-1 44-7 197-13 340s-11 297-11 343l-1 82h-29-30l-5-122c-3-68-8-256-12-418-3-162-10-299-15-305-27-27-31 23-37 426l-7 414-31 3-32 3z"/><path d="m7233 6837c-55-60-68-82-93-157-12-36-24-72-27-80-4-8-7-17-7-20-1-3-4-10-8-15-9-14-44-206-63-344-8-62-18-117-21-122s-12-87-19-182c-10-120-15-335-15-707 0-612-6-572 92-633l51-32-7-145c-4-80-11-230-15-335-5-104-15-413-22-686-15-564-15-554 55-606 38-29 51-33 105-33 60 0 63 1 106 44 24 25 47 57 51 73 7 27-2 342-30 1068-8 198-16 422-18 499l-3 138 33 27c17 15 32 33 32 40s5 9 10 6c7-4 9 178 8 542-2 443-4 495-8 268-3-189-7-8-10 562-5 827-5 842-25 857-11 9-41 16-66 16-42 0-50-4-86-43z"/><path d="m4640 6460v-380h35 35v380 380h-35-35z"/><path d="m4270 6691c-88-47-123-147-81-229 20-40 82-92 108-92 10 0 13-35 13-145v-145h35 35v144 144l30 12c42 17 87 72 100 120 36 133-119 256-240 191z"/><path d="m3640 6375v-295h40 40v295 295h-40-40z"/><path d="m3099 5927c-73-48-69 8-69-960 0-962-3-917 64-958 30-18 68-19 924-19h892l38 34 37 34 3 899c2 887 2 898-18 931-40 65-1 62-963 62h-874zm1769-95c10-7 12-187 10-868l-3-859-862-3-863-2v863c0 475 3 867 7 870 9 10 1695 8 1711-1z"/><path d="m3514 5510c-55-22-54-15-54-541v-487l26-31 26-31h499 500l24 25 25 24v500 499l-31 26-31 26-481-1c-265 0-492-4-503-9zm974-542-3-473-472-3-473-2v475 475h475 475z"/><path d="m2415 5782c-101-63-124-177-53-258 40-45 77-64 127-64 73 0 136 40 161 101l12 29h119 119v40 40h-118-118l-17 34c-26 55-79 89-145 93-43 3-64 0-87-15z"/><path d="m5128 5658c-2-6-2-24 0-40l4-28h249 249v40 40h-249c-180 0-250-3-253-12z"/><path d="m5739 5447c-29-15-52-38-67-65l-23-42h-260-259v-40-40h260 259l17-35c33-70 99-104 184-92 157 21 190 247 47 316-56 27-103 27-158-2z"/><path d="m2050 5300v-40h425 425v40 40h-425-425z"/><path d="m2240 4968v-38h330 330v35 34l-330 3-330 3z"/><path d="m5129 4993c0-5-3-20-5-35l-5-28h526 525v35 35h-520c-286 0-520-3-521-7z"/><path d="m1905 4796c-150-67-133-283 25-326 75-20 170 28 200 100l12 30h379 379v35 35h-379-380l-7 22c-28 90-144 142-229 104z"/><path d="m5553 4789c-39-19-93-81-93-107 0-9-44-12-168-12h-168l4-35 4-35h163 163l12-30c30-72 125-120 199-100 157 42 176 253 27 321-53 24-91 24-143-2z"/><path d="m2410 4305v-35h245 245v35 35h-245-245z"/><path d="m5124 4305v-35h393 393v35 35h-393-393z"/><path d="m3312 3603 3-248-36-16c-104-47-130-183-53-269 60-66 148-77 219-29 68 47 96 149 60 218-16 33-65 77-95 86-19 6-20 15-20 256v249h-40-40z"/><path d="m3640 3295v-555h40 40v555 555h-40-40z"/><path d="m3971 3699 1-152-29-12c-95-42-131-158-74-246 34-54 80-79 146-79 178 0 234 239 74 320l-39 20v150 150h-40-41z"/><path d="m4310 3415v-435h35 35v435 435h-35-35z"/><path d="m4640 3575v-275h35 35v275 275h-35-35z"/><path d="m5610 2426c-6-8-12-42-13-75-3-81 12-96 94-96 48 0 63 4 75 19 17 24 19 137 2 154-18 18-142 16-158-2z"/><path d="m230 1909v-471l208 4c169 3 214 7 247 22 55 24 93 62 121 121 44 93 28 250-33 317-15 17-15 19 0 36 52 57 73 191 45 283-14 50-69 114-119 139-34 18-59 20-254 20h-215zm432 312c31-28 33-33 33-100 0-63-3-73-26-96-34-35-81-44-211-45h-108v135 135h140 140zm-14-387c74-51 68-203-10-245-14-8-75-15-150-17l-128-4v141 141h133c104 0 137-3 155-16z"/><path d="m4616 2359c-57-45-73-126-36-186 11-18 117-157 236-309 165-211 213-278 203-285-19-12-272-11-303 1-15 5-26 17-26 28 0 9-7 28-16 40-20 30-88 31-104 3-28-54 1-138 63-179 39-26 46-27 212-30 200-4 240 3 284 53 26 30 31 44 30 83 0 26-3 55-7 64s-109 147-234 307c-126 159-228 292-228 296 0 3 74 5 165 5h164l20-45c20-44 32-52 81-45 40 5 53 75 24 137-9 19-33 45-53 59-35 24-40 24-242 24-194 0-208-1-233-21z"/><path d="m2091 2301c-6-11-11-56-11-100v-80l-52-3c-47-3-54-6-62-30-6-18-6-38 0-55 8-24 17-29 62-37l52-10v-202c0-210 5-241 43-282 44-47 75-56 192-56 128 0 168 14 210 73 54 79 40 151-30 151-34 0-58-20-69-57-9-29-65-46-133-41-87 7-88 8-91 228l-3 188 129 4c144 3 172 15 172 68 0 51-23 60-163 60h-127v73c0 97-13 121-67 125-33 2-44-1-52-17z"/><path d="m1117 2102c-13-14-17-37-17-88 0-65 5-81 93-284 91-209 101-225 150-243 5-1-7-38-26-82l-34-80-84-5c-80-5-84-6-93-32-6-18-6-38 0-55l9-28 122-3c118-3 123-2 137 20 8 13 85 179 170 370 154 343 156 349 156 419 0 91-10 109-60 109-51 0-70-26-70-96 0-42-13-81-78-225-44-96-85-175-93-177-10-2-39 54-92 176-65 151-77 186-77 233 0 41-5 60-18 72-25 22-75 21-95-1z"/><path d="m2954 2094c-116-78-124-97-124-311 0-195 5-212 88-280 67-55 120-65 316-61 135 3 157 5 175 22 26 23 27 67 4 89-15 12-51 16-193 19l-176 3-42 33c-29 23-42 41-42 58v24h199c194 0 246 7 263 33 14 21 9 225-6 260-15 37-94 113-132 127-14 6-85 10-158 10-127 0-135-1-172-26zm311-135c32-28 35-36 35-85v-54h-170-170v54c0 49 3 57 35 85 35 30 38 31 135 31s100-1 135-31z"/><path d="m5490 2101c-14-27-13-64 3-85 11-15 31-20 90-24l77-5v-208-209h-78c-89 0-102-8-102-61 0-62 8-64 242-64 196 0 211 1 224 19 19 26 18 71-2 90-11 12-36 16-90 16h-74v263c0 191-3 266-12 275-8 8-54 12-140 12-116 0-128-2-138-19z"/><path d="m6330 2101c-14-27-13-64 4-87 13-17 30-19 194-22l179-4-196-186c-108-103-201-193-208-202-14-17-17-108-5-127 17-27 70-33 292-33 274 0 299 6 300 72 0 55-13 58-228 58h-197l85 83c47 45 142 137 213 204l127 122v51c0 95 17 90-285 90-251 0-265-1-275-19z"/><path d="m7274 2094c-116-78-124-97-124-311 0-195 5-212 88-280 67-55 120-65 316-61 135 3 157 5 175 22 26 23 27 67 4 89-15 12-51 16-193 19l-176 3-42 33c-29 23-42 41-42 58v24h199c194 0 246 7 263 33 14 21 9 225-6 260-15 37-94 113-132 127-14 6-85 10-158 10-127 0-135-1-172-26zm311-135c32-28 35-36 35-85v-54h-170-170v54c0 49 3 57 35 85 35 30 38 31 135 31s100-1 135-31z"/></g></svg>